{"glyphs":{"0":{"ha":939,"x_min":0,"x_max":0,"o":"m 461 -1 b 869 493 707 -1 869 168 b 478 988 869 744 756 988 b 69 493 231 988 69 790 b 461 -1 69 232 194 -1 z m 489 261 b 322 518 360 261 322 388 b 463 726 322 651 371 726 b 617 475 588 726 617 556 b 489 261 617 342 572 261 z "},"1":{"ha":728,"x_min":0,"x_max":0,"o":"m 353 17 l 511 17 b 561 71 543 17 561 33 l 561 928 b 519 972 561 957 547 972 l 329 972 b 271 954 308 972 288 967 l 40 783 b 29 733 22 771 14 753 l 124 608 b 174 601 138 589 154 586 b 303 704 217 635 260 668 l 307 701 l 304 71 b 353 17 304 35 321 17 z "},"2":{"ha":824,"x_min":0,"x_max":0,"o":"m 133 1 b 701 44 335 14 533 31 b 738 97 725 46 738 68 l 740 263 b 693 303 740 290 724 304 b 417 279 613 297 510 288 l 417 286 b 701 721 549 419 701 549 b 325 986 701 924 533 986 b 103 956 226 986 149 975 b 69 906 81 946 69 929 b 81 750 69 856 74 800 b 131 721 85 725 103 715 b 300 750 183 731 240 750 b 419 674 357 750 419 728 b 335 532 419 631 385 590 b 113 283 276 465 146 326 b 82 203 93 258 82 233 l 82 54 b 133 1 82 17 100 0 z "},"3":{"ha":831,"x_min":0,"x_max":0,"o":"m 219 0 b 588 83 335 0 474 19 b 761 350 703 147 761 256 b 614 540 761 433 713 510 l 614 549 b 711 731 668 600 711 649 b 360 986 711 899 550 986 b 110 947 264 986 183 971 b 85 910 93 942 85 929 b 103 742 86 856 92 800 b 147 719 106 724 125 715 b 326 742 221 733 244 742 b 433 676 382 742 433 719 b 197 601 433 624 347 613 b 160 561 171 600 158 588 l 167 425 b 206 386 168 394 185 386 b 379 390 300 389 326 390 b 478 333 422 390 478 385 b 415 276 478 306 456 288 b 143 256 332 254 196 256 b 92 213 111 256 93 240 l 83 51 b 124 3 82 22 96 6 b 219 0 140 1 174 0 z "},"4":{"ha":949,"x_min":0,"x_max":0,"o":"m 514 1 l 696 18 b 736 65 724 21 736 36 l 736 258 l 840 267 b 876 310 865 268 876 282 l 879 450 b 846 486 879 475 865 488 l 736 476 l 736 943 b 686 986 736 975 721 989 l 379 958 b 318 921 350 956 333 950 b 64 415 232 749 135 579 b 56 372 60 407 56 389 l 56 231 b 90 196 56 204 68 193 l 475 233 l 475 44 b 514 1 475 11 490 -1 z m 324 433 b 315 440 318 433 315 436 l 315 453 l 457 749 b 468 757 460 754 463 757 b 475 749 472 757 475 756 l 475 471 b 457 449 475 457 468 450 b 324 433 419 443 361 438 z "},"5":{"ha":835,"x_min":0,"x_max":0,"o":"m 217 0 b 779 363 468 0 779 121 b 367 631 779 575 607 658 b 357 640 358 629 357 633 l 361 708 b 372 718 361 715 365 718 l 653 736 b 694 778 679 738 694 749 l 696 944 b 647 985 696 974 678 988 l 156 944 b 110 894 124 942 111 928 l 96 426 b 136 385 94 397 110 385 b 325 403 161 385 242 394 b 514 356 447 415 513 404 b 315 267 514 318 450 286 b 132 253 247 257 171 253 b 89 217 103 253 90 239 l 79 51 b 119 3 78 19 88 6 b 217 0 143 1 167 0 z "},"6":{"ha":860,"x_min":0,"x_max":0,"o":"m 442 0 b 832 326 685 0 832 143 b 539 617 832 526 685 615 b 336 546 464 617 389 592 l 331 549 b 606 786 403 646 493 711 b 618 847 629 803 636 824 l 519 978 b 492 992 513 988 501 992 b 456 981 481 992 468 988 b 42 433 274 886 42 701 b 442 0 42 169 192 0 z m 446 240 b 340 325 389 240 340 271 b 464 417 340 392 408 417 b 568 335 518 417 568 389 b 446 240 568 268 503 240 z "},"7":{"ha":774,"x_min":0,"x_max":0,"o":"m 190 50 l 378 3 b 421 19 400 -3 413 -1 l 671 694 b 690 772 681 721 690 746 l 690 946 b 661 972 690 963 681 972 l 75 972 b 42 940 53 972 42 963 l 46 767 b 81 736 46 742 56 736 l 401 740 l 406 736 l 174 93 b 190 50 168 78 172 54 z "},"8":{"ha":939,"x_min":0,"x_max":0,"o":"m 424 0 b 869 308 714 0 869 108 b 657 558 869 442 794 529 l 657 564 b 771 742 731 601 771 664 b 442 986 771 900 656 986 b 94 744 215 986 94 890 b 233 529 94 649 143 560 l 233 524 b 69 286 126 483 69 400 b 424 0 69 100 193 0 z m 454 226 b 351 308 389 226 351 260 b 478 403 351 365 406 403 b 586 318 546 403 586 369 b 454 226 586 263 531 226 z m 428 654 b 344 713 378 654 344 678 b 444 785 344 756 376 785 b 525 721 494 785 525 760 b 428 654 525 681 483 654 z "},"9":{"ha":888,"x_min":0,"x_max":0,"o":"m 364 -6 b 400 6 375 -6 388 -1 b 818 553 582 100 818 285 b 418 986 818 817 668 986 b 28 660 175 986 28 843 b 321 369 28 460 175 371 b 524 440 396 369 471 394 l 529 438 b 253 199 461 339 365 275 b 240 139 229 183 224 161 l 336 8 b 364 -6 343 -1 354 -6 z m 397 589 b 292 674 340 589 292 619 b 415 765 292 740 360 765 b 519 683 469 765 519 738 b 397 589 519 617 454 589 z "}," ":{"ha":250,"x_min":0,"x_max":0,"o":""}," ":{"ha":250,"x_min":0,"x_max":0,"o":""},"A":{"ha":928,"x_min":0,"x_max":0,"o":"m 79 13 l 261 6 b 311 42 289 4 304 15 l 349 178 b 385 210 354 199 367 210 l 525 214 b 565 188 547 214 560 207 l 603 42 b 653 8 608 18 624 7 l 839 14 b 868 69 868 15 878 31 l 664 931 b 611 972 657 961 640 972 l 326 972 b 264 926 292 972 274 963 l 44 65 b 79 13 36 31 44 14 z m 508 421 l 407 421 b 390 446 394 421 388 431 l 450 718 b 461 729 451 724 456 728 b 478 719 469 731 476 726 l 526 446 b 508 421 529 431 522 421 z "},"a":{"ha":928,"x_min":0,"x_max":0,"o":"m 79 13 l 261 6 b 311 42 289 4 304 15 l 349 178 b 385 210 354 199 367 210 l 525 214 b 565 188 547 214 560 207 l 603 42 b 653 8 608 18 624 7 l 839 14 b 868 69 868 15 878 31 l 664 931 b 611 972 657 961 640 972 l 326 972 b 264 926 292 972 274 963 l 44 65 b 79 13 36 31 44 14 z m 508 421 l 407 421 b 390 446 394 421 388 431 l 450 718 b 461 729 451 724 456 728 b 478 719 469 731 476 726 l 526 446 b 508 421 529 431 522 421 z "},"B":{"ha":865,"x_min":0,"x_max":0,"o":"m 154 0 l 246 -3 b 810 339 644 -15 810 185 b 672 529 810 422 760 496 l 672 535 b 771 751 738 606 771 682 b 417 986 771 881 661 986 b 131 925 306 986 189 956 b 104 874 111 915 104 900 l 104 46 b 154 0 104 11 115 1 z m 376 211 b 364 236 365 211 364 218 l 364 392 b 383 421 364 406 369 415 b 432 429 399 426 415 429 b 519 354 500 429 519 393 b 376 211 519 264 422 211 z m 379 558 b 365 581 367 558 365 564 l 365 731 b 383 758 365 744 371 753 b 429 767 397 764 413 767 b 514 697 496 767 514 736 b 379 558 514 628 436 563 z "},"b":{"ha":865,"x_min":0,"x_max":0,"o":"m 154 0 l 246 -3 b 810 339 644 -15 810 185 b 672 529 810 422 760 496 l 672 535 b 771 751 738 606 771 682 b 417 986 771 881 661 986 b 131 925 306 986 189 956 b 104 874 111 915 104 900 l 104 46 b 154 0 104 11 115 1 z m 376 211 b 364 236 365 211 364 218 l 364 392 b 383 421 364 406 369 415 b 432 429 399 426 415 429 b 519 354 500 429 519 393 b 376 211 519 264 422 211 z m 379 558 b 365 581 367 558 365 564 l 365 731 b 383 758 365 744 371 753 b 429 767 397 764 413 767 b 514 697 496 767 514 736 b 379 558 514 628 436 563 z "},"C":{"ha":885,"x_min":0,"x_max":0,"o":"m 515 0 b 846 104 656 0 771 40 b 856 172 868 122 869 142 l 786 325 b 721 346 771 356 749 364 b 539 276 663 300 600 276 b 321 500 410 276 321 357 b 544 713 321 635 414 713 b 685 678 593 713 639 700 b 733 696 710 665 722 667 l 797 867 b 779 921 806 890 803 907 b 519 986 711 960 628 986 b 56 492 247 986 56 782 b 515 0 56 206 247 0 z "},"c":{"ha":885,"x_min":0,"x_max":0,"o":"m 515 0 b 846 104 656 0 771 40 b 856 172 868 122 869 142 l 786 325 b 721 346 771 356 749 364 b 539 276 663 300 600 276 b 321 500 410 276 321 357 b 544 713 321 635 414 713 b 685 678 593 713 639 700 b 733 696 710 665 722 667 l 797 867 b 779 921 806 890 803 907 b 519 986 711 960 628 986 b 56 492 247 986 56 782 b 515 0 56 206 247 0 z "},"D":{"ha":903,"x_min":0,"x_max":0,"o":"m 154 0 l 203 0 b 861 601 586 29 861 257 b 393 986 861 828 676 986 b 142 932 296 986 189 956 b 104 872 117 919 104 906 l 104 46 b 154 0 104 11 119 0 z m 396 313 b 363 335 378 304 363 313 l 363 696 b 385 726 363 715 368 722 b 447 735 401 731 424 735 b 599 574 547 735 599 661 b 396 313 599 468 521 365 z "},"d":{"ha":903,"x_min":0,"x_max":0,"o":"m 154 0 l 203 0 b 861 601 586 29 861 257 b 393 986 861 828 676 986 b 142 932 296 986 189 956 b 104 872 117 919 104 906 l 104 46 b 154 0 104 11 119 0 z m 396 313 b 363 335 378 304 363 313 l 363 696 b 385 726 363 715 368 722 b 447 735 401 731 424 735 b 599 574 547 735 599 661 b 396 313 599 468 521 365 z "},"E":{"ha":715,"x_min":0,"x_max":0,"o":"m 142 1 l 619 21 b 653 57 642 22 653 33 l 653 232 b 610 268 653 258 639 269 l 364 253 l 363 393 l 543 406 b 575 439 565 407 575 418 l 576 599 b 543 624 576 617 565 625 l 363 610 l 363 743 l 593 761 b 628 800 617 763 628 775 l 628 975 b 590 1004 628 996 617 1006 l 144 974 b 104 932 117 972 104 958 l 104 40 b 142 1 104 13 115 0 z "},"e":{"ha":715,"x_min":0,"x_max":0,"o":"m 142 1 l 619 21 b 653 57 642 22 653 33 l 653 232 b 610 268 653 258 639 269 l 364 253 l 363 393 l 543 406 b 575 439 565 407 575 418 l 576 599 b 543 624 576 617 565 625 l 363 610 l 363 743 l 593 761 b 628 800 617 763 628 775 l 628 975 b 590 1004 628 996 617 1006 l 144 974 b 104 932 117 972 104 958 l 104 40 b 142 1 104 13 115 0 z "},"F":{"ha":700,"x_min":0,"x_max":0,"o":"m 140 1 l 335 11 b 364 51 354 13 364 25 l 363 361 l 557 375 b 582 404 574 376 582 385 l 582 575 b 558 599 582 593 575 600 l 363 583 l 363 735 l 606 754 b 638 792 628 756 638 768 l 638 975 b 600 1004 638 997 626 1006 l 144 974 b 104 932 117 972 104 958 l 104 40 b 140 1 104 11 115 0 z "},"f":{"ha":700,"x_min":0,"x_max":0,"o":"m 140 1 l 335 11 b 364 51 354 13 364 25 l 363 361 l 557 375 b 582 404 574 376 582 385 l 582 575 b 558 599 582 593 575 600 l 363 583 l 363 735 l 606 754 b 638 792 628 756 638 768 l 638 975 b 600 1004 638 997 626 1006 l 144 974 b 104 932 117 972 104 958 l 104 40 b 140 1 104 11 115 0 z "},"G":{"ha":1046,"x_min":0,"x_max":0,"o":"m 526 0 b 990 546 792 0 990 203 b 946 592 990 579 979 592 l 601 594 b 563 557 575 594 564 583 l 554 439 b 593 401 553 413 564 401 l 707 399 b 528 268 689 310 610 267 b 321 499 417 269 321 357 b 544 713 321 635 414 713 b 685 678 593 713 639 700 b 733 696 710 665 722 667 l 799 869 b 781 921 806 889 803 908 b 521 986 711 960 628 986 b 56 492 247 986 56 782 b 526 0 56 204 247 0 z "},"g":{"ha":1046,"x_min":0,"x_max":0,"o":"m 526 0 b 990 546 792 0 990 203 b 946 592 990 579 979 592 l 601 594 b 563 557 575 594 564 583 l 554 439 b 593 401 553 413 564 401 l 707 399 b 528 268 689 310 610 267 b 321 499 417 269 321 357 b 544 713 321 635 414 713 b 685 678 593 713 639 700 b 733 696 710 665 722 667 l 799 869 b 781 921 806 889 803 908 b 521 986 711 960 628 986 b 56 492 247 986 56 782 b 526 0 56 204 247 0 z "},"H":{"ha":983,"x_min":0,"x_max":0,"o":"m 142 1 l 332 15 b 365 58 354 17 365 31 l 365 351 l 618 379 l 618 39 b 656 1 618 13 629 0 l 846 15 b 879 58 868 17 879 31 l 879 950 b 839 986 879 978 867 989 l 656 972 b 618 936 629 971 618 960 l 618 633 l 365 607 l 365 950 b 325 986 365 978 353 989 l 142 972 b 104 936 115 971 104 960 l 104 39 b 142 1 104 13 115 0 z "},"h":{"ha":983,"x_min":0,"x_max":0,"o":"m 142 1 l 332 15 b 365 58 354 17 365 31 l 365 351 l 618 379 l 618 39 b 656 1 618 13 629 0 l 846 15 b 879 58 868 17 879 31 l 879 950 b 839 986 879 978 867 989 l 656 972 b 618 936 629 971 618 960 l 618 633 l 365 607 l 365 950 b 325 986 365 978 353 989 l 142 972 b 104 936 115 971 104 960 l 104 39 b 142 1 104 13 115 0 z "},"I":{"ha":472,"x_min":0,"x_max":0,"o":"m 142 1 l 335 15 b 368 58 357 17 368 31 l 368 950 b 328 986 368 978 356 988 l 142 972 b 104 936 115 971 104 960 l 104 39 b 142 1 104 13 115 0 z "},"i":{"ha":472,"x_min":0,"x_max":0,"o":"m 142 1 l 335 15 b 368 58 357 17 368 31 l 368 950 b 328 986 368 978 356 988 l 142 972 b 104 936 115 971 104 960 l 104 39 b 142 1 104 13 115 0 z "},"J":{"ha":693,"x_min":0,"x_max":0,"o":"m 265 0 b 624 447 513 0 624 140 l 624 950 b 585 986 624 976 611 988 l 169 958 b 135 918 146 957 135 944 l 135 747 b 174 711 135 721 147 710 l 365 724 l 365 513 b 231 254 365 335 324 254 b 128 276 204 254 172 261 b 79 257 101 285 86 279 l 31 90 b 51 44 24 67 31 53 b 265 0 132 14 199 0 z "},"j":{"ha":693,"x_min":0,"x_max":0,"o":"m 265 0 b 624 447 513 0 624 140 l 624 950 b 585 986 624 976 611 988 l 169 958 b 135 918 146 957 135 944 l 135 747 b 174 711 135 721 147 710 l 365 724 l 365 513 b 231 254 365 335 324 254 b 128 276 204 254 172 261 b 79 257 101 285 86 279 l 31 90 b 51 44 24 67 31 53 b 265 0 132 14 199 0 z "},"K":{"ha":876,"x_min":0,"x_max":0,"o":"m 142 1 l 329 17 b 363 56 351 18 363 31 l 363 249 l 371 253 l 672 10 b 693 1 679 4 686 1 b 718 17 701 1 710 7 l 838 160 b 835 206 853 179 851 192 l 538 451 l 538 454 l 803 811 b 792 865 819 833 815 850 l 647 956 b 592 946 625 969 607 967 l 369 640 l 363 640 l 363 950 b 322 986 363 978 350 989 l 142 972 b 104 936 115 971 104 960 l 104 39 b 142 1 104 11 115 -1 z "},"k":{"ha":876,"x_min":0,"x_max":0,"o":"m 142 1 l 329 17 b 363 56 351 18 363 31 l 363 249 l 371 253 l 672 10 b 693 1 679 4 686 1 b 718 17 701 1 710 7 l 838 160 b 835 206 853 179 851 192 l 538 451 l 538 454 l 803 811 b 792 865 819 833 815 850 l 647 956 b 592 946 625 969 607 967 l 369 640 l 363 640 l 363 950 b 322 986 363 978 350 989 l 142 972 b 104 936 115 971 104 960 l 104 39 b 142 1 104 11 115 -1 z "},"L":{"ha":690,"x_min":0,"x_max":0,"o":"m 142 0 l 597 19 b 640 60 625 21 639 33 l 649 228 b 599 265 650 256 635 267 l 365 254 l 365 950 b 326 986 365 978 354 989 l 142 972 b 104 936 115 971 104 960 l 104 39 b 142 0 104 13 115 -1 z "},"l":{"ha":690,"x_min":0,"x_max":0,"o":"m 142 0 l 597 19 b 640 60 625 21 639 33 l 649 228 b 599 265 650 256 635 267 l 365 254 l 365 950 b 326 986 365 978 354 989 l 142 972 b 104 936 115 971 104 960 l 104 39 b 142 0 104 13 115 -1 z "},"M":{"ha":1201,"x_min":0,"x_max":0,"o":"m 85 13 l 285 13 b 314 36 299 13 311 22 l 390 460 l 404 460 l 493 89 b 521 69 496 78 508 69 l 665 69 b 692 89 676 69 688 76 l 803 460 l 817 460 l 890 36 b 922 14 893 22 907 13 l 1121 25 b 1146 57 1138 26 1149 42 l 1013 946 b 981 972 1010 961 996 974 l 786 958 b 754 936 772 957 758 950 l 619 533 l 606 533 l 474 950 b 442 972 469 964 456 974 l 247 958 b 215 929 232 957 218 947 l 56 49 b 85 13 53 31 65 13 z "},"m":{"ha":1201,"x_min":0,"x_max":0,"o":"m 85 13 l 285 13 b 314 36 299 13 311 22 l 390 460 l 404 460 l 493 89 b 521 69 496 78 508 69 l 665 69 b 692 89 676 69 688 76 l 803 460 l 817 460 l 890 36 b 922 14 893 22 907 13 l 1121 25 b 1146 57 1138 26 1149 42 l 1013 946 b 981 972 1010 961 996 974 l 786 958 b 754 936 772 957 758 950 l 619 533 l 606 533 l 474 950 b 442 972 469 964 456 974 l 247 958 b 215 929 232 957 218 947 l 56 49 b 85 13 53 31 65 13 z "},"N":{"ha":1022,"x_min":0,"x_max":0,"o":"m 139 3 l 335 15 b 365 51 356 17 365 28 l 365 506 l 376 508 l 671 42 b 722 25 681 25 696 22 l 892 39 b 918 75 910 40 918 53 l 918 954 b 882 985 918 976 907 986 l 696 971 b 660 929 671 969 660 956 l 660 540 l 649 538 l 368 964 b 319 983 360 978 342 985 l 133 967 b 104 932 114 965 104 954 l 104 36 b 139 3 104 13 115 1 z "},"n":{"ha":1022,"x_min":0,"x_max":0,"o":"m 139 3 l 335 15 b 365 51 356 17 365 28 l 365 506 l 376 508 l 671 42 b 722 25 681 25 696 22 l 892 39 b 918 75 910 40 918 53 l 918 954 b 882 985 918 976 907 986 l 696 971 b 660 929 671 969 660 956 l 660 540 l 649 538 l 368 964 b 319 983 360 978 342 985 l 133 967 b 104 932 114 965 104 954 l 104 36 b 139 3 104 13 115 1 z "},"Ñ":{"ha":1022,"x_min":0,"x_max":0,"o":"m 604 1086 b 775 1144 664 1086 728 1110 b 797 1179 790 1156 797 1165 b 793 1201 797 1186 796 1193 l 756 1308 b 728 1332 750 1325 740 1332 b 572 1289 693 1332 651 1289 b 354 1333 508 1289 436 1333 b 183 1275 294 1333 231 1310 b 161 1240 168 1264 161 1254 b 165 1218 161 1233 163 1226 l 203 1111 b 231 1088 208 1094 218 1088 b 386 1131 265 1088 307 1131 b 604 1086 447 1131 525 1086 z m 139 3 l 335 15 b 365 51 356 17 365 28 l 365 506 l 376 508 l 671 42 b 722 25 681 25 696 22 l 892 39 b 918 75 910 40 918 53 l 918 954 b 882 985 918 976 907 986 l 696 971 b 660 929 671 969 660 956 l 660 540 l 649 538 l 368 964 b 319 983 360 978 342 985 l 133 967 b 104 932 114 965 104 954 l 104 36 b 139 3 104 13 115 1 z "},"ñ":{"ha":1022,"x_min":0,"x_max":0,"o":"m 604 1086 b 775 1144 664 1086 728 1110 b 797 1179 790 1156 797 1165 b 793 1201 797 1186 796 1193 l 756 1308 b 728 1332 750 1325 740 1332 b 572 1289 693 1332 651 1289 b 354 1333 508 1289 436 1333 b 183 1275 294 1333 231 1310 b 161 1240 168 1264 161 1254 b 165 1218 161 1233 163 1226 l 203 1111 b 231 1088 208 1094 218 1088 b 386 1131 265 1088 307 1131 b 604 1086 447 1131 525 1086 z m 139 3 l 335 15 b 365 51 356 17 365 28 l 365 506 l 376 508 l 671 42 b 722 25 681 25 696 22 l 892 39 b 918 75 910 40 918 53 l 918 954 b 882 985 918 976 907 986 l 696 971 b 660 929 671 969 660 956 l 660 540 l 649 538 l 368 964 b 319 983 360 978 342 985 l 133 967 b 104 932 114 965 104 954 l 104 36 b 139 3 104 13 115 1 z "},"O":{"ha":1043,"x_min":0,"x_max":0,"o":"m 517 0 b 988 492 792 0 988 204 b 517 986 988 782 792 986 b 56 492 247 986 56 782 b 517 0 56 204 247 0 z m 522 276 b 321 499 404 276 321 368 b 522 710 321 622 404 710 b 722 499 639 710 722 622 b 522 276 722 368 639 276 z "},"o":{"ha":1043,"x_min":0,"x_max":0,"o":"m 517 0 b 988 492 792 0 988 204 b 517 986 988 782 792 986 b 56 492 247 986 56 782 b 517 0 56 204 247 0 z m 522 276 b 321 499 404 276 321 368 b 522 710 321 622 404 710 b 722 499 639 710 722 622 b 522 276 722 368 639 276 z "},"P":{"ha":821,"x_min":0,"x_max":0,"o":"m 135 0 l 332 14 b 365 54 354 15 365 26 l 365 222 b 765 686 533 304 765 476 b 407 986 765 882 613 986 b 133 926 296 986 189 956 b 104 874 111 914 104 900 l 104 32 b 135 0 104 8 114 -1 z m 381 485 b 360 496 369 476 360 481 l 360 740 b 375 764 360 754 365 760 b 417 769 386 768 393 769 b 503 690 481 769 503 735 b 381 485 503 624 450 536 z "},"p":{"ha":821,"x_min":0,"x_max":0,"o":"m 135 0 l 332 14 b 365 54 354 15 365 26 l 365 222 b 765 686 533 304 765 476 b 407 986 765 882 613 986 b 133 926 296 986 189 956 b 104 874 111 914 104 900 l 104 32 b 135 0 104 8 114 -1 z m 381 485 b 360 496 369 476 360 481 l 360 740 b 375 764 360 754 365 760 b 417 769 386 768 393 769 b 503 690 481 769 503 735 b 381 485 503 624 450 536 z "},"Q":{"ha":1043,"x_min":0,"x_max":0,"o":"m 729 -153 l 903 -79 b 915 -29 922 -71 925 -49 b 833 119 892 21 863 69 b 988 492 928 207 988 338 b 517 986 988 782 792 986 b 56 492 247 986 56 782 b 517 0 56 204 247 0 b 600 7 546 0 574 3 b 681 -133 628 -39 656 -87 b 729 -153 694 -158 706 -162 z m 522 276 b 321 499 404 276 321 368 b 522 710 321 622 404 710 b 722 499 639 710 722 622 b 522 276 722 368 639 276 z "},"q":{"ha":1043,"x_min":0,"x_max":0,"o":"m 729 -153 l 903 -79 b 915 -29 922 -71 925 -49 b 833 119 892 21 863 69 b 988 492 928 207 988 338 b 517 986 988 782 792 986 b 56 492 247 986 56 782 b 517 0 56 204 247 0 b 600 7 546 0 574 3 b 681 -133 628 -39 656 -87 b 729 -153 694 -158 706 -162 z m 522 276 b 321 499 404 276 321 368 b 522 710 321 622 404 710 b 722 499 639 710 722 622 b 522 276 722 368 639 276 z "},"R":{"ha":882,"x_min":0,"x_max":0,"o":"m 135 0 l 332 14 b 365 47 354 15 365 26 l 365 250 l 372 253 b 704 8 469 175 600 76 b 757 19 728 -7 744 -1 l 854 179 b 842 225 867 200 861 214 b 601 383 768 268 679 331 l 601 390 b 765 686 714 481 765 589 b 407 986 765 856 644 986 b 131 925 296 986 189 956 b 104 874 111 913 104 900 l 104 32 b 135 0 104 8 114 -1 z m 381 485 b 360 496 369 476 360 481 l 360 740 b 375 764 360 754 365 760 b 417 769 386 768 393 769 b 503 690 481 769 503 735 b 381 485 503 624 450 536 z "},"r":{"ha":882,"x_min":0,"x_max":0,"o":"m 135 0 l 332 14 b 365 47 354 15 365 26 l 365 250 l 372 253 b 704 8 469 175 600 76 b 757 19 728 -7 744 -1 l 854 179 b 842 225 867 200 861 214 b 601 383 768 268 679 331 l 601 390 b 765 686 714 481 765 589 b 407 986 765 856 644 986 b 131 925 296 986 189 956 b 104 874 111 913 104 900 l 104 32 b 135 0 104 8 114 -1 z m 381 485 b 360 496 369 476 360 481 l 360 740 b 375 764 360 754 365 760 b 417 769 386 768 393 769 b 503 690 481 769 503 735 b 381 485 503 624 450 536 z "},"S":{"ha":636,"x_min":0,"x_max":0,"o":"m 247 0 b 560 293 388 0 563 108 b 464 528 558 385 522 454 b 376 678 418 583 376 628 b 469 750 378 719 399 750 l 524 749 b 553 781 542 749 551 758 l 567 942 b 538 976 568 960 558 971 b 396 989 499 985 449 990 b 107 735 201 986 103 869 b 189 518 108 657 147 583 b 279 349 233 451 278 393 b 174 260 281 292 242 260 b 135 261 161 260 149 260 b 100 229 113 264 103 253 l 83 58 b 117 15 81 35 92 22 b 247 0 156 4 208 0 z "},"s":{"ha":636,"x_min":0,"x_max":0,"o":"m 247 0 b 560 293 388 0 563 108 b 464 528 558 385 522 454 b 376 678 418 583 376 628 b 469 750 378 719 399 750 l 524 749 b 553 781 542 749 551 758 l 567 942 b 538 976 568 960 558 971 b 396 989 499 985 449 990 b 107 735 201 986 103 869 b 189 518 108 657 147 583 b 279 349 233 451 278 393 b 174 260 281 292 242 260 b 135 261 161 260 149 260 b 100 229 113 264 103 253 l 83 58 b 117 15 81 35 92 22 b 247 0 156 4 208 0 z "},"T":{"ha":868,"x_min":0,"x_max":0,"o":"m 339 0 l 532 0 b 565 36 554 0 565 11 l 565 725 l 788 746 b 819 781 811 749 819 758 l 819 961 b 783 989 819 982 808 990 l 83 942 b 49 906 60 940 49 929 l 49 729 b 85 696 49 704 60 694 l 304 711 l 304 36 b 339 0 304 11 315 0 z "},"t":{"ha":868,"x_min":0,"x_max":0,"o":"m 339 0 l 532 0 b 565 36 554 0 565 11 l 565 725 l 788 746 b 819 781 811 749 819 758 l 819 961 b 783 989 819 982 808 990 l 83 942 b 49 906 60 940 49 929 l 49 729 b 85 696 49 704 60 694 l 304 711 l 304 36 b 339 0 304 11 315 0 z "},"U":{"ha":929,"x_min":0,"x_max":0,"o":"m 474 0 b 846 407 731 0 847 128 l 844 956 b 808 986 844 979 833 988 l 615 971 b 583 931 593 969 583 957 l 585 415 b 464 258 585 299 554 258 b 344 415 375 258 344 299 l 344 953 b 307 986 344 976 333 988 l 121 972 b 83 932 94 971 83 958 l 83 407 b 474 0 83 128 206 0 z "},"u":{"ha":929,"x_min":0,"x_max":0,"o":"m 474 0 b 846 407 731 0 847 128 l 844 956 b 808 986 844 979 833 988 l 615 971 b 583 931 593 969 583 957 l 585 415 b 464 258 585 299 554 258 b 344 415 375 258 344 299 l 344 953 b 307 986 344 976 333 988 l 121 972 b 83 932 94 971 83 958 l 83 407 b 474 0 83 128 206 0 z "},"V":{"ha":939,"x_min":0,"x_max":0,"o":"m 342 3 l 640 18 b 686 60 667 19 679 32 l 883 928 b 864 965 886 943 879 964 l 658 982 b 619 961 642 983 622 978 l 499 308 l 481 308 l 319 957 b 279 983 314 978 301 986 l 86 964 b 57 921 60 961 51 944 l 288 40 b 342 3 296 10 311 1 z "},"v":{"ha":939,"x_min":0,"x_max":0,"o":"m 342 3 l 640 18 b 686 60 667 19 679 32 l 883 928 b 864 965 886 943 879 964 l 658 982 b 619 961 642 983 622 978 l 499 308 l 481 308 l 319 957 b 279 983 314 978 301 986 l 86 964 b 57 921 60 961 51 944 l 288 40 b 342 3 296 10 311 1 z "},"W":{"ha":1282,"x_min":0,"x_max":0,"o":"m 293 1 l 476 14 b 529 51 506 15 519 25 l 642 379 l 657 379 l 756 28 b 794 1 761 8 775 0 l 996 15 b 1035 54 1017 17 1029 26 l 1224 913 b 1192 958 1231 942 1221 956 l 989 981 b 953 954 968 983 957 975 l 864 490 l 844 490 l 757 846 b 724 871 753 863 742 871 l 568 871 b 535 844 549 871 539 863 l 449 490 l 429 490 l 333 958 b 294 983 329 978 317 986 l 94 963 b 64 917 69 960 58 943 l 250 38 b 293 1 256 11 269 0 z "},"w":{"ha":1282,"x_min":0,"x_max":0,"o":"m 293 1 l 476 14 b 529 51 506 15 519 25 l 642 379 l 657 379 l 756 28 b 794 1 761 8 775 0 l 996 15 b 1035 54 1017 17 1029 26 l 1224 913 b 1192 958 1231 942 1221 956 l 989 981 b 953 954 968 983 957 975 l 864 490 l 844 490 l 757 846 b 724 871 753 863 742 871 l 568 871 b 535 844 549 871 539 863 l 449 490 l 429 490 l 333 958 b 294 983 329 978 317 986 l 94 963 b 64 917 69 960 58 943 l 250 38 b 293 1 256 11 269 0 z "},"X":{"ha":936,"x_min":0,"x_max":0,"o":"m 229 -1 b 263 19 240 -1 251 6 l 464 275 l 472 275 l 671 21 b 706 0 682 7 693 0 b 736 13 715 0 725 4 l 872 121 b 894 156 888 132 894 143 b 881 186 894 165 890 175 l 638 488 l 638 496 l 881 799 b 893 828 889 808 893 818 b 872 864 893 840 886 853 l 738 972 b 706 986 726 982 715 986 b 672 965 694 986 683 979 l 472 701 l 464 701 l 264 965 b 229 988 253 981 242 988 b 199 974 219 988 210 983 l 65 863 b 44 828 51 851 44 839 b 57 797 44 818 49 808 l 299 496 l 299 488 l 56 186 b 42 154 47 175 42 164 b 63 121 42 143 49 132 l 197 13 b 229 -1 208 4 219 -1 z "},"x":{"ha":936,"x_min":0,"x_max":0,"o":"m 229 -1 b 263 19 240 -1 251 6 l 464 275 l 472 275 l 671 21 b 706 0 682 7 693 0 b 736 13 715 0 725 4 l 872 121 b 894 156 888 132 894 143 b 881 186 894 165 890 175 l 638 488 l 638 496 l 881 799 b 893 828 889 808 893 818 b 872 864 893 840 886 853 l 738 972 b 706 986 726 982 715 986 b 672 965 694 986 683 979 l 472 701 l 464 701 l 264 965 b 229 988 253 981 242 988 b 199 974 219 988 210 983 l 65 863 b 44 828 51 851 44 839 b 57 797 44 818 49 808 l 299 496 l 299 488 l 56 186 b 42 154 47 175 42 164 b 63 121 42 143 49 132 l 197 13 b 229 -1 208 4 219 -1 z "},"Y":{"ha":878,"x_min":0,"x_max":0,"o":"m 354 1 l 547 15 b 581 58 569 17 581 31 l 582 339 l 846 883 b 821 928 857 906 849 919 l 642 983 b 593 960 618 990 603 983 l 450 632 l 439 632 l 272 969 b 226 982 264 988 250 992 l 50 907 b 35 856 26 897 21 881 l 318 339 l 317 39 b 354 1 317 13 328 0 z "},"y":{"ha":878,"x_min":0,"x_max":0,"o":"m 354 1 l 547 15 b 581 58 569 17 581 31 l 582 339 l 846 883 b 821 928 857 906 849 919 l 642 983 b 593 960 618 990 603 983 l 450 632 l 439 632 l 272 969 b 226 982 264 988 250 992 l 50 907 b 35 856 26 897 21 881 l 318 339 l 317 39 b 354 1 317 13 328 0 z "},"Z":{"ha":797,"x_min":0,"x_max":0,"o":"m 104 1 l 685 17 b 725 61 713 18 725 31 l 728 229 b 682 267 728 256 714 268 l 390 257 l 386 265 l 699 725 b 718 776 710 742 717 758 l 726 946 b 690 983 728 972 717 983 l 126 969 b 90 933 103 969 92 958 l 85 756 b 117 724 85 733 94 724 l 415 732 l 421 724 l 93 261 b 74 200 78 239 75 226 l 69 43 b 104 1 68 14 79 1 z "},"z":{"ha":797,"x_min":0,"x_max":0,"o":"m 104 1 l 685 17 b 725 61 713 18 725 31 l 728 229 b 682 267 728 256 714 268 l 390 257 l 386 265 l 699 725 b 718 776 710 742 717 758 l 726 946 b 690 983 728 972 717 983 l 126 969 b 90 933 103 969 92 958 l 85 756 b 117 724 85 733 94 724 l 415 732 l 421 724 l 93 261 b 74 200 78 239 75 226 l 69 43 b 104 1 68 14 79 1 z "},".":{"ha":451,"x_min":0,"x_max":0,"o":"m 225 0 b 347 118 326 0 347 22 b 231 236 347 211 329 236 b 104 119 126 236 106 211 b 225 0 103 22 121 0 z "},",":{"ha":444,"x_min":0,"x_max":0,"o":"m 131 -221 b 224 -214 156 -224 192 -221 b 282 -167 249 -210 267 -193 b 343 188 358 -39 357 71 b 300 240 339 219 324 238 b 139 221 246 246 189 239 b 103 154 111 210 99 186 l 126 -29 l 97 -161 b 131 -221 89 -200 106 -217 z "},":":{"ha":451,"x_min":0,"x_max":0,"o":"m 225 0 b 347 118 326 0 347 22 b 231 236 347 211 329 236 b 104 119 126 236 106 211 b 225 0 103 22 121 0 z m 225 472 b 347 590 326 472 347 494 b 231 708 347 683 329 708 b 104 592 126 708 106 683 b 225 472 103 494 121 472 z "},";":{"ha":444,"x_min":0,"x_max":0,"o":"m 131 -221 b 224 -214 156 -224 192 -221 b 282 -167 249 -210 267 -193 b 343 188 358 -39 357 71 b 300 240 339 219 324 238 b 139 221 246 246 189 239 b 103 154 111 210 99 186 l 126 -29 l 97 -161 b 131 -221 89 -200 106 -217 z m 225 472 b 347 590 326 472 347 494 b 231 708 347 683 329 708 b 104 592 126 708 106 683 b 225 472 103 494 121 472 z "},"…":{"ha":1061,"x_min":0,"x_max":0,"o":"m 529 0 b 649 115 628 0 649 22 b 535 229 649 206 631 229 b 413 115 433 229 414 206 b 529 0 411 22 428 0 z m 838 0 b 957 115 936 0 957 22 b 843 229 957 206 939 229 b 721 115 742 229 722 206 b 838 0 719 22 736 0 z m 221 0 b 340 115 319 0 340 22 b 226 229 340 206 322 229 b 104 115 125 229 106 206 b 221 0 103 22 119 0 z "},"?":{"ha":675,"x_min":0,"x_max":0,"o":"m 171 331 l 347 317 b 379 339 368 315 371 325 b 578 707 439 456 578 569 b 265 986 578 851 478 986 b 94 971 182 986 125 979 b 71 935 78 965 67 953 l 104 788 b 149 769 111 760 138 768 b 207 775 168 772 178 775 b 331 674 286 775 331 739 b 146 375 331 572 213 535 b 171 331 136 351 140 333 z m 240 0 b 363 118 342 0 363 22 b 246 236 363 211 344 236 b 119 119 142 236 121 211 b 240 0 118 22 136 0 z "},"¿":{"ha":675,"x_min":0,"x_max":0,"o":"m 504 379 l 328 393 b 296 371 307 394 304 385 b 97 3 236 254 97 140 b 410 -276 97 -142 197 -276 b 581 -261 493 -276 550 -269 b 604 -225 597 -256 608 -243 l 571 -78 b 526 -60 564 -50 538 -58 b 468 -65 507 -62 497 -65 b 344 36 389 -65 344 -29 b 529 335 344 138 463 175 b 504 379 539 358 535 376 z m 435 710 b 313 592 333 710 313 688 b 429 474 313 499 331 474 b 556 590 533 474 554 499 b 435 710 557 688 539 710 z "},"!":{"ha":486,"x_min":0,"x_max":0,"o":"m 167 336 l 308 336 b 346 382 338 336 344 356 b 375 926 349 421 368 847 b 326 979 378 969 360 978 l 164 985 b 114 943 110 986 114 943 b 119 383 114 906 119 426 b 167 336 119 347 132 336 z m 232 0 b 354 118 333 0 354 22 b 238 236 354 211 336 236 b 111 119 133 236 113 211 b 232 0 110 22 128 0 z "},"¡":{"ha":486,"x_min":0,"x_max":0,"o":"m 319 372 l 178 372 b 140 326 149 372 142 353 b 111 -218 138 288 118 -139 b 160 -271 108 -261 126 -269 l 322 -276 b 372 -235 376 -278 372 -235 b 367 325 372 -197 367 282 b 319 372 367 361 354 372 z m 254 708 b 132 590 153 708 132 686 b 249 472 132 497 150 472 b 375 589 353 472 374 497 b 254 708 376 686 358 708 z "},"·":{"ha":451,"x_min":0,"x_max":0,"o":"m 225 375 b 347 493 326 375 347 397 b 231 611 347 586 329 611 b 104 494 126 611 106 586 b 225 375 103 397 121 375 z "},"•":{"ha":554,"x_min":0,"x_max":0,"o":"m 276 332 b 443 493 414 332 443 363 b 283 654 443 619 418 654 b 111 494 142 654 114 619 b 276 332 110 363 135 332 z "},"*":{"ha":764,"x_min":0,"x_max":0,"o":"m 336 424 l 435 431 b 464 471 454 432 465 446 l 461 565 l 464 567 l 561 513 b 606 521 581 501 599 504 l 644 610 b 635 653 653 628 651 643 l 543 704 l 543 707 l 635 764 b 646 811 654 775 658 792 l 594 885 b 549 893 582 901 565 903 l 463 839 l 460 840 l 463 956 b 433 983 463 975 453 985 l 328 978 b 301 947 310 976 300 967 l 307 840 l 304 839 l 206 901 b 165 889 189 911 175 907 l 118 800 b 129 760 108 783 113 769 l 224 707 l 224 704 l 128 650 b 118 604 110 639 106 624 l 171 524 b 218 515 183 506 199 503 l 303 571 l 306 569 l 303 460 b 336 424 303 435 314 422 z "},"#":{"ha":1246,"x_min":0,"x_max":0,"o":"m 681 7 l 824 13 b 878 60 854 14 874 31 l 900 201 l 1039 201 b 1101 249 1074 201 1096 218 l 1119 356 b 1071 403 1125 386 1108 403 l 931 403 l 957 581 l 1081 581 b 1143 628 1115 581 1138 597 l 1161 735 b 1113 782 1167 765 1150 782 l 988 782 l 1011 935 b 974 978 1015 964 1007 979 l 819 969 b 771 928 793 968 775 956 l 749 782 l 571 782 l 594 935 b 556 978 599 964 590 979 l 403 971 b 354 929 376 969 358 957 l 332 782 l 200 782 b 144 736 169 782 150 765 l 126 629 b 168 581 121 597 136 581 l 301 581 l 274 403 l 158 403 b 103 357 128 403 108 386 l 85 250 b 126 201 79 218 94 201 l 243 201 l 222 63 b 264 8 217 25 229 7 l 407 13 b 461 60 438 14 457 31 l 483 201 l 660 201 l 639 61 b 681 7 633 24 646 6 z m 514 403 l 540 581 l 718 581 l 690 403 z "},"/":{"ha":622,"x_min":0,"x_max":0,"o":"m 90 -176 l 224 -167 b 296 -100 263 -164 285 -143 b 564 974 369 217 454 554 b 510 1033 575 1017 558 1035 l 375 1031 b 304 974 336 1029 314 1010 b 28 -101 263 808 139 346 b 90 -176 14 -157 33 -181 z "},"\\":{"ha":638,"x_min":0,"x_max":0,"o":"m 379 -154 l 503 -168 b 565 -104 553 -174 575 -151 b 333 968 547 -26 343 925 b 265 1026 324 1007 304 1025 l 140 1032 b 86 969 96 1033 76 1011 b 304 -87 161 581 208 351 b 379 -154 313 -126 339 -150 z "},"(":{"ha":535,"x_min":0,"x_max":0,"o":"m 365 -151 l 439 -128 b 460 -67 465 -118 472 -97 b 336 490 385 108 336 281 b 460 1047 336 700 385 872 b 439 1108 472 1078 465 1100 l 365 1132 b 300 1111 340 1140 318 1133 b 97 490 169 944 97 754 b 300 -131 97 226 169 36 b 365 -151 318 -153 340 -160 z "},")":{"ha":535,"x_min":0,"x_max":0,"o":"m 96 -128 l 169 -151 b 235 -131 194 -160 217 -153 b 438 490 365 36 438 226 b 235 1111 438 754 365 944 b 169 1132 217 1133 194 1140 l 96 1108 b 75 1047 69 1100 63 1078 b 199 490 150 872 199 700 b 75 -67 199 281 150 108 b 96 -128 63 -97 69 -118 z "},"{":{"ha":679,"x_min":0,"x_max":0,"o":"m 279 -124 l 544 -161 b 596 -121 578 -165 596 -151 l 596 -19 b 560 43 596 19 585 39 l 496 53 b 449 111 467 57 450 78 l 442 367 b 421 422 442 390 435 410 l 378 464 b 365 488 369 472 365 481 b 378 511 365 496 369 504 l 421 553 b 442 608 435 565 442 585 l 449 864 b 496 922 450 897 467 918 l 560 932 b 596 994 585 936 596 956 l 596 1096 b 544 1136 596 1126 578 1140 l 279 1099 b 217 1026 240 1093 218 1067 l 204 610 b 179 553 204 589 197 565 l 124 511 b 111 488 115 506 111 496 b 124 464 111 479 115 469 l 179 422 b 204 365 197 410 204 386 l 217 -51 b 279 -124 218 -92 240 -118 z "},"}":{"ha":679,"x_min":0,"x_max":0,"o":"m 135 -161 l 400 -124 b 463 -51 439 -118 461 -92 l 475 365 b 500 422 475 386 482 410 l 556 464 b 568 488 564 469 568 479 b 556 511 568 496 564 506 l 500 553 b 475 610 482 565 475 589 l 463 1026 b 400 1099 461 1067 439 1093 l 135 1136 b 83 1096 101 1140 83 1126 l 83 994 b 119 932 83 956 94 936 l 183 922 b 231 864 213 918 229 897 l 238 608 b 258 553 238 585 244 565 l 301 511 b 314 488 310 504 314 496 b 301 464 314 481 310 472 l 258 422 b 238 367 244 410 238 390 l 231 111 b 183 53 229 78 213 57 l 119 43 b 83 -19 94 39 83 19 l 83 -121 b 135 -161 83 -151 101 -165 z "},"[":{"ha":651,"x_min":0,"x_max":0,"o":"m 186 -118 l 503 -158 b 554 -118 536 -162 554 -149 l 554 15 b 510 61 554 42 539 58 l 418 71 b 356 136 374 75 357 92 b 356 844 346 376 346 601 b 418 910 357 889 374 906 l 510 919 b 554 965 539 922 554 939 l 554 1099 b 503 1139 554 1129 536 1143 l 186 1099 b 125 1026 146 1093 126 1068 b 125 -46 106 601 106 393 b 186 -118 126 -87 146 -112 z "},"]":{"ha":651,"x_min":0,"x_max":0,"o":"m 149 -158 l 465 -118 b 526 -46 506 -112 525 -87 b 526 1026 546 393 546 601 b 465 1099 525 1068 506 1093 l 149 1139 b 97 1099 115 1143 97 1129 l 97 965 b 142 919 97 939 113 922 l 233 910 b 296 844 278 906 294 889 b 296 136 306 601 306 376 b 233 71 294 92 278 75 l 142 61 b 97 15 113 58 97 42 l 97 -118 b 149 -158 97 -149 115 -162 z "},"-":{"ha":735,"x_min":0,"x_max":0,"o":"m 136 349 l 601 368 b 631 400 625 369 631 385 l 629 572 b 606 601 629 588 621 601 l 129 583 b 104 561 111 583 104 575 l 108 378 b 136 349 108 354 122 349 z "},"–":{"ha":957,"x_min":0,"x_max":0,"o":"m 136 349 l 824 368 b 853 400 847 368 853 385 l 851 572 b 828 601 851 588 843 601 l 129 583 b 104 561 111 583 104 575 l 108 378 b 136 349 108 354 122 349 z "},"—":{"ha":1186,"x_min":0,"x_max":0,"o":"m 136 349 l 1053 368 b 1082 400 1076 368 1082 385 l 1081 572 b 1057 601 1081 588 1072 601 l 129 583 b 104 561 111 583 104 575 l 108 378 b 136 349 108 354 122 349 z "},"_":{"ha":888,"x_min":0,"x_max":0,"o":"m 129 -25 l 761 -6 b 790 26 781 -4 790 6 l 789 199 b 765 228 789 218 782 228 l 122 210 b 97 188 106 210 97 203 l 101 4 b 129 -25 101 -15 110 -25 z "},"'":{"ha":444,"x_min":0,"x_max":0,"o":"m 131 525 b 224 532 156 522 192 525 b 282 579 249 536 267 553 b 343 933 358 707 357 817 b 300 986 339 965 324 983 b 139 967 246 992 189 985 b 103 900 111 956 99 932 l 126 717 l 97 585 b 131 525 89 546 106 529 z "},"”":{"ha":800,"x_min":0,"x_max":0,"o":"m 131 526 b 224 533 156 524 192 526 b 282 581 249 538 267 554 b 343 935 358 708 357 818 b 300 988 339 967 324 985 b 139 968 246 993 189 986 b 103 901 111 957 99 933 l 126 718 l 97 586 b 131 526 89 547 106 531 z m 486 526 b 579 533 511 524 547 526 b 638 581 604 538 622 554 b 699 935 714 708 713 818 b 656 988 694 967 679 985 b 494 968 601 993 544 986 b 458 901 467 957 454 933 l 482 718 l 453 586 b 486 526 444 547 461 531 z "},"“":{"ha":800,"x_min":0,"x_max":0,"o":"m 669 971 b 576 964 644 974 608 971 b 518 917 551 960 533 943 b 457 563 442 789 443 679 b 500 510 461 531 476 513 b 661 529 554 504 611 511 b 697 596 689 540 701 564 l 674 779 l 703 911 b 669 971 711 950 694 967 z m 314 971 b 221 964 289 974 253 971 b 163 917 196 960 178 943 b 101 563 86 789 88 679 b 144 510 106 531 121 513 b 306 529 199 504 256 511 b 342 596 333 540 346 564 l 318 779 l 347 911 b 314 971 356 950 339 967 z "},"«":{"ha":1065,"x_min":0,"x_max":0,"o":"m 578 340 l 858 115 b 906 115 874 103 893 100 l 979 203 b 971 251 994 221 992 235 l 736 439 l 736 447 l 971 635 b 979 683 992 651 994 665 l 906 771 b 858 771 893 786 874 783 l 583 551 b 543 504 571 542 546 524 b 542 392 538 469 536 429 b 578 340 546 367 568 349 z m 131 340 l 411 115 b 458 115 426 103 446 100 l 532 203 b 524 251 547 221 544 235 l 289 439 l 289 447 l 524 635 b 532 683 544 651 547 665 l 458 771 b 411 771 446 786 426 783 l 136 551 b 96 504 124 542 99 524 b 94 392 90 469 89 429 b 131 340 99 367 121 349 z "},"»":{"ha":1065,"x_min":0,"x_max":0,"o":"m 207 115 l 488 340 b 524 392 497 349 519 367 b 522 504 529 429 528 469 b 482 551 519 524 494 542 l 207 771 b 160 771 192 783 172 786 l 86 683 b 94 635 71 665 74 651 l 329 447 l 329 439 l 94 251 b 86 203 74 235 71 221 l 160 115 b 207 115 172 100 192 103 z m 654 115 l 935 340 b 971 392 944 349 967 367 b 969 504 976 429 975 469 b 929 551 967 524 942 542 l 654 771 b 607 771 639 783 619 786 l 533 683 b 542 635 518 665 521 651 l 776 447 l 776 439 l 542 251 b 533 203 521 235 518 221 l 607 115 b 654 115 619 100 639 103 z "},"$":{"ha":708,"x_min":0,"x_max":0,"o":"m 301 -153 l 433 -139 b 465 -90 454 -136 465 -124 l 464 35 b 611 274 551 68 615 175 b 517 497 608 376 563 444 b 418 651 468 554 417 596 b 571 746 418 710 471 736 b 606 790 596 749 608 764 b 583 954 600 832 592 911 b 538 986 578 979 563 986 b 447 976 500 986 469 981 l 436 1090 b 392 1125 433 1115 414 1128 l 269 1110 b 233 1063 244 1107 232 1088 l 238 921 b 126 692 158 878 126 800 b 228 467 128 593 179 524 b 314 335 272 415 314 375 b 226 260 314 288 275 264 b 132 258 196 256 161 257 b 83 219 101 260 85 246 b 86 43 82 172 83 101 b 126 3 88 19 101 6 b 251 1 171 -1 211 -3 l 257 -114 b 301 -153 258 -146 272 -156 z "},"€":{"ha":1057,"x_min":0,"x_max":0,"o":"m 697 0 b 1014 104 824 0 922 33 b 1029 158 1036 121 1042 138 l 949 294 b 889 308 933 319 915 324 b 715 250 824 265 775 250 b 525 349 628 250 563 285 l 718 349 b 761 389 743 349 757 361 l 767 433 b 733 468 769 457 758 468 l 489 468 b 488 506 488 481 488 493 l 488 521 l 742 521 b 785 561 767 521 781 533 l 790 606 b 753 640 793 629 781 640 l 518 640 b 719 744 556 707 625 744 b 857 711 767 744 813 731 b 914 731 886 699 904 704 l 971 881 b 946 932 979 901 971 918 b 697 986 872 971 793 986 b 250 640 476 986 301 849 l 125 640 b 82 606 99 640 85 629 l 76 561 b 111 521 72 533 83 521 l 233 521 l 233 506 b 235 468 233 493 233 481 l 106 468 b 63 433 79 468 65 457 l 57 389 b 92 349 53 361 64 349 l 256 349 b 697 0 314 146 485 0 z "},"%":{"ha":1161,"x_min":0,"x_max":0,"o":"m 257 0 l 421 0 b 497 57 456 0 478 17 b 940 931 629 317 788 628 b 904 986 957 965 943 986 l 747 986 b 671 940 713 986 686 969 b 219 61 544 694 386 388 b 257 0 203 28 217 0 z m 242 632 b 421 807 367 632 421 686 b 251 986 421 932 369 986 b 69 806 126 986 74 932 b 242 632 67 685 119 632 z m 914 0 b 1092 174 1038 0 1092 53 b 924 354 1092 300 1040 354 b 740 171 801 354 746 299 b 914 0 738 51 790 0 z "},"@":{"ha":1301,"x_min":0,"x_max":0,"o":"m 640 -79 b 879 -37 718 -79 799 -65 b 904 10 906 -28 913 -25 l 886 82 b 839 106 879 108 865 115 b 636 68 768 81 700 68 b 253 476 418 68 253 214 b 681 901 253 757 461 901 b 1049 526 894 901 1049 781 b 949 357 1049 394 994 357 b 871 522 886 357 863 429 b 885 683 878 607 881 629 b 836 746 888 714 867 732 b 694 774 788 768 740 774 b 381 439 532 774 383 669 b 579 210 379 325 444 210 b 769 343 676 210 736 269 l 772 343 b 965 210 794 269 851 210 b 1204 540 1090 210 1204 318 b 676 1049 1204 842 975 1049 b 97 465 407 1049 97 861 b 640 -79 97 118 347 -78 z m 599 357 b 535 450 556 357 535 404 b 656 626 535 542 576 626 b 710 617 674 626 689 625 b 722 597 718 614 722 608 b 704 468 721 551 718 513 b 599 357 689 421 663 357 z "},"&":{"ha":1103,"x_min":0,"x_max":0,"o":"m 394 0 b 747 121 581 0 667 60 b 925 14 817 76 879 40 b 960 0 939 6 950 0 b 996 24 972 0 982 6 b 1083 163 1018 54 1061 124 b 1069 210 1094 182 1089 199 b 931 292 1024 238 981 261 b 1011 392 963 329 989 361 b 1001 444 1025 413 1021 431 l 878 536 b 815 531 851 556 833 551 b 725 424 790 503 768 468 b 618 500 688 449 649 475 l 618 507 b 786 742 732 567 788 657 b 456 986 785 897 636 986 b 106 726 265 986 104 903 b 222 521 104 647 146 576 l 222 515 b 56 288 114 467 57 376 b 394 0 53 89 231 0 z m 411 232 b 324 299 351 233 324 265 b 393 369 324 328 346 360 b 531 271 435 338 471 311 b 411 232 496 242 454 231 z m 433 628 b 372 717 397 657 372 681 b 446 782 372 750 403 781 b 531 724 488 783 531 765 b 433 628 532 685 482 649 z "},"©":{"ha":1321,"x_min":0,"x_max":0,"o":"m 668 -79 b 1224 488 1001 -79 1224 147 b 668 1047 1224 824 1001 1047 b 97 488 325 1047 97 824 b 668 -79 97 147 325 -79 z m 668 63 b 247 488 415 63 247 232 b 668 906 247 739 415 906 b 1074 488 911 906 1074 739 b 668 63 1074 232 911 63 z m 682 165 b 917 275 776 165 861 207 b 917 304 925 285 925 296 l 825 393 b 794 390 817 401 800 400 b 686 335 768 356 729 335 b 549 488 610 335 549 403 b 686 639 549 571 610 639 b 769 607 718 639 747 628 b 806 615 782 599 800 601 l 856 732 b 849 758 860 742 858 753 b 682 808 800 790 743 808 b 368 488 510 808 368 665 b 682 165 368 308 510 165 z "},"®":{"ha":1028,"x_min":0,"x_max":0,"o":"m 514 213 b 931 613 814 213 931 471 b 514 1033 931 829 814 1033 b 97 613 193 1033 97 757 b 514 213 97 450 193 213 z m 514 315 b 211 613 286 315 211 479 b 514 931 211 738 278 931 b 817 613 722 931 817 778 b 514 315 817 469 722 315 z m 378 411 l 467 418 b 482 433 478 418 482 424 l 482 525 l 485 526 b 636 415 526 490 588 442 b 660 421 647 410 654 411 l 704 493 b 699 514 710 503 708 508 b 590 586 660 536 632 553 l 590 589 b 664 724 640 631 664 679 b 501 861 664 801 610 861 b 375 833 450 861 401 847 b 364 810 367 826 364 821 l 364 426 b 378 411 364 415 368 411 z m 489 632 b 479 638 485 629 479 631 l 479 749 b 486 760 479 756 482 757 b 506 763 492 761 494 763 b 544 726 535 763 544 746 b 489 632 544 696 521 656 z "},"™":{"ha":981,"x_min":0,"x_max":0,"o":"m 424 533 l 532 533 b 546 543 539 533 544 538 l 579 717 l 585 717 l 626 568 b 639 558 628 564 633 558 l 708 558 b 719 568 713 558 718 563 l 765 717 l 772 717 l 807 543 b 824 533 808 538 815 533 l 928 539 b 940 553 938 539 942 546 l 871 974 b 857 986 869 981 864 986 l 763 979 b 747 969 756 979 750 976 l 683 807 l 676 807 l 614 976 b 600 986 611 983 606 986 l 504 979 b 490 967 497 979 492 975 l 410 550 b 424 533 408 542 414 533 z m 185 533 l 282 533 b 301 549 296 533 301 538 l 301 853 l 397 861 b 413 876 408 863 413 865 l 413 974 b 396 986 413 983 407 988 l 69 965 b 53 949 57 964 53 960 l 53 856 b 69 840 53 844 57 839 l 168 847 l 168 549 b 185 533 168 538 174 533 z "},"°":{"ha":546,"x_min":0,"x_max":0,"o":"m 269 521 b 490 751 390 521 490 615 b 269 982 490 888 390 982 b 56 751 150 982 56 888 b 269 521 56 615 150 521 z m 274 667 b 196 750 226 667 196 704 b 274 826 196 797 231 826 b 350 750 315 826 350 797 b 274 667 350 704 321 667 z "},"+":{"ha":903,"x_min":0,"x_max":0,"o":"m 365 71 l 540 86 b 574 132 563 88 574 101 l 574 332 l 776 338 b 806 369 796 338 806 347 l 804 531 b 781 560 804 550 797 560 l 574 554 l 574 768 b 543 803 574 793 564 804 l 361 786 b 329 750 339 785 329 774 l 329 547 l 122 542 b 97 519 106 542 97 535 l 101 347 b 129 318 101 328 110 318 l 329 324 l 329 110 b 365 71 329 81 340 68 z "},"×":{"ha":882,"x_min":0,"x_max":0,"o":"m 124 247 l 258 136 b 313 144 275 124 294 126 l 449 279 l 594 142 b 649 147 611 125 628 129 l 758 256 b 760 296 774 269 774 282 l 608 438 l 761 589 b 761 640 781 608 781 625 l 624 751 b 569 743 607 765 588 761 l 431 606 l 285 744 b 242 740 271 757 258 756 l 131 628 b 129 581 114 611 114 596 l 271 447 l 122 300 b 124 247 103 281 103 265 z "},"÷":{"ha":901,"x_min":0,"x_max":0,"o":"m 129 318 l 775 338 b 804 369 794 339 804 349 l 803 528 b 779 557 803 547 796 557 l 122 539 b 97 517 106 539 97 532 l 101 347 b 129 318 101 328 110 318 z m 446 -1 b 568 117 547 -1 568 21 b 451 235 568 210 550 235 b 325 118 347 235 326 210 b 446 -1 324 21 342 -1 z m 446 642 b 568 760 547 642 568 664 b 451 878 568 853 550 878 b 325 761 347 878 326 853 b 446 642 324 664 342 642 z "},"=":{"ha":1151,"x_min":0,"x_max":0,"o":"m 254 469 l 900 489 b 929 521 919 490 929 500 l 928 685 b 904 714 928 704 921 714 l 247 696 b 222 674 231 696 222 689 l 226 499 b 254 469 226 479 235 469 z m 254 106 l 900 125 b 929 157 919 126 929 136 l 928 321 b 904 350 928 340 921 350 l 247 332 b 222 310 231 332 222 325 l 226 135 b 254 106 226 115 235 106 z "},"→":{"ha":1033,"x_min":0,"x_max":0,"o":"m 576 90 l 892 381 b 936 468 922 408 935 446 b 933 547 938 489 936 518 b 889 617 931 582 904 604 l 557 906 b 496 900 535 925 514 924 l 407 783 b 418 717 388 758 393 735 l 574 606 l 571 597 l 136 599 b 111 576 118 599 111 590 l 115 393 b 143 364 115 369 129 363 l 571 390 l 574 382 l 428 271 b 421 204 404 253 399 229 l 515 93 b 576 90 533 72 554 69 z "},"←":{"ha":1033,"x_min":0,"x_max":0,"o":"m 142 381 l 457 90 b 518 93 479 69 500 72 l 613 204 b 606 271 635 229 629 253 l 460 382 l 463 390 l 890 364 b 918 393 904 363 918 369 l 922 576 b 897 599 922 590 915 599 l 463 597 l 460 606 l 615 717 b 626 783 640 735 646 758 l 538 900 b 476 906 519 924 499 925 l 144 617 b 100 547 129 604 103 582 b 97 468 97 518 96 489 b 142 381 99 446 111 408 z "},"↑":{"ha":1038,"x_min":0,"x_max":0,"o":"m 926 550 l 636 865 b 549 910 608 896 571 908 b 469 907 528 911 499 910 b 400 863 435 904 413 878 l 111 531 b 117 469 92 508 93 488 l 233 381 b 300 392 258 361 282 367 l 411 547 l 419 544 l 418 110 b 440 85 418 92 426 85 l 624 89 b 653 117 647 89 654 103 l 626 544 l 635 547 l 746 401 b 813 394 764 378 788 372 l 924 489 b 926 550 944 507 947 528 z "},"↓":{"ha":1038,"x_min":0,"x_max":0,"o":"m 636 129 l 926 444 b 924 506 947 467 944 488 l 813 600 b 746 593 788 622 764 617 l 635 447 l 626 450 l 653 878 b 624 906 654 892 647 906 l 440 910 b 418 885 426 910 418 903 l 419 450 l 411 447 l 300 603 b 233 614 282 628 258 633 l 117 525 b 111 464 93 507 92 486 l 400 132 b 469 88 413 117 435 90 b 549 85 499 85 528 83 b 636 129 571 86 608 99 z "}}}
